<svg width="32" height="32" viewBox="0 0 32 32" fill="none" xmlns="http://www.w3.org/2000/svg">
<path fill-rule="evenodd" clip-rule="evenodd" d="M15.1757 24.3812V14.0429C15.1757 8.49634 10.6794 4 5.13281 4V14.3403C5.13281 19.8869 9.62915 24.3812 15.1757 24.3812ZM17.4678 29.1333V21.9916C17.4678 17.0128 21.5045 12.976 26.4833 12.976V20.1178C26.4833 25.0966 22.4466 29.1333 17.4678 29.1333ZM21.665 4.98059C23.4966 5.41621 24.6282 7.2541 24.1926 9.08562C23.7569 10.9172 21.919 12.0488 20.0875 11.6131C18.256 11.1775 17.1244 9.33963 17.56 7.5081C17.9956 5.67657 19.8335 4.54497 21.665 4.98059Z" fill="#060606"/>
</svg>
