<svg width="24" height="24" viewBox="0 0 24 24" fill="none" xmlns="http://www.w3.org/2000/svg">
<path fill-rule="evenodd" clip-rule="evenodd" d="M9.79289 19.4571C10.1834 19.8476 10.8166 19.8476 11.2071 19.4571C11.5976 19.0666 11.5976 18.4334 11.2071 18.0429L6.16421 13L20.25 13C20.8023 13 21.25 12.5523 21.25 12C21.25 11.4477 20.8023 11 20.25 11L6.16422 11L11.2071 5.9571C11.5976 5.56658 11.5976 4.93341 11.2071 4.54289C10.8166 4.15237 10.1834 4.15237 9.79289 4.54289L3.04416 11.2916C3.04009 11.2957 3.03605 11.2998 3.03205 11.3039C2.84632 11.4953 2.75232 11.7427 2.75004 11.9908M2.82508 12.3809C2.87389 12.4995 2.94649 12.6107 3.04289 12.7071L9.79289 19.4571M2.82508 12.3809C2.7778 12.2661 2.75123 12.1407 2.75004 12.0092L2.82508 12.3809Z" fill="currentColor"/>
</svg>
