<svg width="24" height="24" viewBox="0 0 24 24" fill="none" xmlns="http://www.w3.org/2000/svg">
<path fill-rule="evenodd" clip-rule="evenodd" d="M1.53033 0.46967C1.23744 0.176777 0.762563 0.176777 0.46967 0.46967C0.176777 0.762563 0.176777 1.23744 0.46967 1.53033L4.93709 5.99775C3.0602 7.56802 1.49869 9.48444 0.339133 11.6454C0.223908 11.8601 0.220196 12.1174 0.32918 12.3354L1 12C0.32918 12.3354 0.32931 12.3357 0.329455 12.336L0.329823 12.3367L0.330837 12.3387L0.333974 12.3449L0.344676 12.3659C0.353774 12.3836 0.3668 12.4086 0.383723 12.4406C0.417564 12.5046 0.467023 12.5962 0.531865 12.7114C0.661492 12.9419 0.852934 13.2676 1.10435 13.6569C1.60624 14.434 2.352 15.472 3.32785 16.513C5.26586 18.5802 8.20037 20.75 12 20.75V20.7501L12.0123 20.7499C14.1014 20.7157 16.131 20.0776 17.859 18.9196L22.4697 23.5303C22.7626 23.8232 23.2374 23.8232 23.5303 23.5303C23.8232 23.2374 23.8232 22.7626 23.5303 22.4697L18.4721 17.4114C18.4715 17.4109 18.4709 17.4103 18.4703 17.4097L14.6532 13.5926L14.6481 13.5874L10.4125 9.35187L10.4075 9.34679L6.59033 5.52966C6.58978 5.52911 6.58922 5.52856 6.58867 5.52801L1.53033 0.46967ZM16.7744 17.8351L14.0819 15.1426C13.8843 15.2815 13.6732 15.4014 13.4514 15.5002C12.9914 15.7051 12.4948 15.8154 11.9913 15.8242C11.4878 15.8331 10.9877 15.7405 10.5207 15.5519C10.0538 15.3633 9.62961 15.0826 9.27352 14.7265C8.91742 14.3704 8.6367 13.9462 8.44809 13.4793C8.25949 13.0123 8.16687 12.5122 8.17575 12.0087C8.18463 11.5052 8.29484 11.0086 8.4998 10.5486C8.59862 10.3268 8.71849 10.1157 8.85744 9.91809L6.0023 7.06295C4.32936 8.44128 2.9232 10.1157 1.85457 12.0032C1.9709 12.2089 2.14145 12.4979 2.3644 12.8431C2.83126 13.566 3.523 14.5279 4.42215 15.487C6.23298 17.4186 8.79636 19.2477 11.9939 19.25C13.6916 19.2211 15.3435 18.7292 16.7744 17.8351ZM9.94528 11.0059C9.91828 11.0559 9.89315 11.107 9.86995 11.1591C9.74697 11.4351 9.68085 11.733 9.67552 12.0351C9.67019 12.3372 9.72576 12.6373 9.83892 12.9175C9.95209 13.1977 10.1205 13.4522 10.3342 13.6658C10.5478 13.8795 10.8023 14.0479 11.0825 14.1611C11.3627 14.2742 11.6628 14.3298 11.9649 14.3245C12.267 14.3191 12.5649 14.253 12.8409 14.13C12.893 14.1068 12.9441 14.0817 12.9941 14.0547L9.94528 11.0059ZM20.7792 14.068L11.4843 4.76458C11.6553 4.75446 11.8267 4.74959 11.9982 4.74999L12 4.74999C15.2004 4.74999 17.7659 6.58016 19.5778 8.51295C20.477 9.47205 21.1687 10.434 21.6356 11.1569C21.8588 11.5025 22.0295 11.7917 22.1458 11.9974C21.739 12.7188 21.2824 13.4107 20.7792 14.068ZM23.6708 11.6646L23 12C23.6708 11.6646 23.6707 11.6643 23.6705 11.664L23.6702 11.6633L23.6692 11.6613L23.666 11.6551L23.6553 11.6341C23.6462 11.6164 23.6332 11.5913 23.6163 11.5594C23.5824 11.4954 23.533 11.4038 23.4681 11.2885C23.3385 11.0581 23.1471 10.7324 22.8957 10.3431C22.3938 9.56598 21.648 8.52794 20.6722 7.48704C18.7343 5.41998 15.8001 3.25033 12.0009 3.24999C11.2361 3.24827 10.4737 3.33543 9.72906 3.50973C9.46407 3.57176 9.25347 3.77248 9.17879 4.0342C9.10411 4.29591 9.17707 4.57755 9.36943 4.77008L20.3094 15.7201C20.458 15.8688 20.6621 15.9483 20.872 15.9393C21.082 15.9303 21.2786 15.8337 21.4139 15.6729C22.2765 14.6477 23.0298 13.5352 23.6614 12.3536C23.7761 12.139 23.7796 11.8822 23.6708 11.6646ZM12.0009 3.24999H12V3.99999L12.0018 3.25L12.0009 3.24999Z" fill="currentColor"/>
</svg>
